<?xml version="1.0" encoding="iso-8859-1"?>
<!-- Generator: Adobe Illustrator 19.0.0, SVG Export Plug-In . SVG Version: 6.00 Build 0)  -->
<svg version="1.1" id="Layer_1" xmlns="http://www.w3.org/2000/svg" xmlns:xlink="http://www.w3.org/1999/xlink" x="0px" y="0px"
	 viewBox="0 0 316.703 316.703" style="enable-background:new 0 0 316.703 316.703;" xml:space="preserve">
<g>
	<g>
		<path d="M299.054,61.77H17.649C7.9,61.77,0,69.67,0,79.419v175.514h316.703V79.419C316.703,69.676,308.803,61.77,299.054,61.77z
			 M15.959,72.579c3.497,0,6.328,2.836,6.328,6.328c0,3.497-2.836,6.328-6.328,6.328c-3.497,0-6.328-2.831-6.328-6.328
			C9.631,75.41,12.462,72.579,15.959,72.579z M304.599,90.022v119.291H12.104V90.022H304.599z M15.959,242.578
			c-3.497,0-6.328-2.836-6.328-6.328c0-3.497,2.836-6.328,6.328-6.328c3.497,0,6.328,2.831,6.328,6.328
			C22.287,239.747,19.456,242.578,15.959,242.578z M61.737,247.688c-3.149,0-5.699-2.55-5.699-5.699s2.55-5.699,5.699-5.699
			c3.149,0,5.699,2.55,5.699,5.699S64.886,247.688,61.737,247.688z M72.125,230.761c-3.149,0-5.699-2.55-5.699-5.699
			c0-3.149,2.55-5.699,5.699-5.699c3.149,0,5.699,2.55,5.699,5.699S75.274,230.761,72.125,230.761z M244.577,230.761
			c-3.149,0-5.699-2.55-5.699-5.699c0-3.149,2.55-5.699,5.699-5.699c3.149,0,5.699,2.55,5.699,5.699
			C250.271,228.211,247.721,230.761,244.577,230.761z M254.966,247.688c-3.149,0-5.699-2.55-5.699-5.699s2.55-5.699,5.699-5.699
			c3.149,0,5.699,2.55,5.699,5.699C260.659,245.138,258.109,247.688,254.966,247.688z M300.744,242.578
			c-3.497,0-6.328-2.836-6.328-6.328c0-3.497,2.836-6.328,6.328-6.328c3.497,0,6.328,2.831,6.328,6.328
			C307.072,239.747,304.241,242.578,300.744,242.578z M300.744,85.235c-3.497,0-6.328-2.831-6.328-6.328s2.836-6.328,6.328-6.328
			c3.497,0,6.328,2.836,6.328,6.328C307.072,82.404,304.241,85.235,300.744,85.235z"/>
		<path d="M79.181,184.625c19.671,0,35.671-16,35.671-35.671s-16-35.671-35.671-35.671c-19.671,0-35.671,16-35.671,35.671
			S59.51,184.625,79.181,184.625z M79.181,125.048c13.179,0,23.905,10.721,23.905,23.905s-10.726,23.905-23.905,23.905
			c-13.179,0-23.905-10.721-23.905-23.905C55.276,135.775,66.002,125.048,79.181,125.048z"/>
		<path d="M237.358,204.782c30.787,0,55.829-25.042,55.829-55.828s-25.042-55.828-55.829-55.828
			c-30.781,0-55.823,25.042-55.823,55.828S206.577,204.782,237.358,204.782z M237.358,122.545c14.561,0,26.414,11.848,26.414,26.414
			c0,14.561-11.853,26.414-26.414,26.414c-14.561,0-26.409-11.848-26.409-26.414C210.944,134.392,222.792,122.545,237.358,122.545z"
			/>
	</g>
</g>
<g>
</g>
<g>
</g>
<g>
</g>
<g>
</g>
<g>
</g>
<g>
</g>
<g>
</g>
<g>
</g>
<g>
</g>
<g>
</g>
<g>
</g>
<g>
</g>
<g>
</g>
<g>
</g>
<g>
</g>
</svg>
