<?xml version="1.0" encoding="iso-8859-1"?>
<!-- Generator: Adobe Illustrator 19.0.0, SVG Export Plug-In . SVG Version: 6.00 Build 0)  -->
<svg version="1.1" id="Layer_1" xmlns="http://www.w3.org/2000/svg" xmlns:xlink="http://www.w3.org/1999/xlink" x="0px" y="0px"
	 viewBox="0 0 346.47 346.47" style="enable-background:new 0 0 346.47 346.47;" xml:space="preserve">
<g>
	<g>
		<rect x="25.81" y="23.219" width="29.414" height="18.043"/>
		<path d="M40.52,264.581c-8.893,0-16.128,7.235-16.128,16.123s7.235,16.123,16.128,16.123c8.888,0,16.123-7.235,16.123-16.123
			S49.408,264.581,40.52,264.581z M40.52,290.944c-5.647,0-10.245-4.593-10.245-10.24c0-5.647,4.598-10.24,10.245-10.24
			s10.24,4.593,10.24,10.24C50.76,286.351,46.167,290.944,40.52,290.944z"/>
		<path d="M317.665,322.883H28.805c-9.748,0-17.649-7.9-17.649-17.649v23.588c0,9.748,7.9,17.649,17.649,17.649h288.86
			c9.748,0,17.649-7.9,17.649-17.649v-23.588C335.314,314.982,327.414,322.883,317.665,322.883z"/>
		<path d="M173.22,30.167c-70.625,0-127.882,57.257-127.882,127.882s57.257,127.882,127.882,127.882s127.882-57.257,127.882-127.882
			S243.845,30.167,173.22,30.167z M173.22,213.53c-30.638,0-55.48-24.837-55.48-55.48c0-30.638,24.837-55.48,55.48-55.48
			c30.638,0,55.48,24.837,55.48,55.48C228.695,188.687,203.858,213.53,173.22,213.53z"/>
		<path d="M173.22,149.207c-4.884,0-8.842,3.958-8.842,8.842c0,4.884,3.958,8.842,8.842,8.842c4.885,0,8.842-3.958,8.842-8.842
			C182.062,153.165,178.099,149.207,173.22,149.207z"/>
		<path d="M302.961,20.28c-8.893,0-16.128,7.235-16.128,16.128c0,8.888,7.235,16.123,16.128,16.123
			c8.888,0,16.123-7.235,16.123-16.123C319.084,27.51,311.849,20.28,302.961,20.28z M302.961,46.643
			c-5.647,0-10.245-4.593-10.245-10.24c0-5.647,4.598-10.245,10.245-10.245s10.24,4.598,10.24,10.245
			C313.201,42.051,308.608,46.643,302.961,46.643z"/>
		<rect x="288.251" y="275.845" width="29.414" height="18.043"/>
		<path d="M317.665,0H28.805c-9.748,0-17.649,7.9-17.649,17.649v278.676c0,9.748,7.9,17.649,17.649,17.649h288.86
			c9.748,0,17.649-7.9,17.649-17.649V17.649C335.314,7.9,327.414,0,317.665,0z M317.665,308.091H28.805
			c-6.487,0-11.766-5.279-11.766-11.766V17.649c0-6.487,5.279-11.766,11.766-11.766h288.86c6.487,0,11.766,5.279,11.766,11.766
			v278.676h0C329.431,302.812,324.152,308.091,317.665,308.091z"/>
	</g>
</g>
<g>
</g>
<g>
</g>
<g>
</g>
<g>
</g>
<g>
</g>
<g>
</g>
<g>
</g>
<g>
</g>
<g>
</g>
<g>
</g>
<g>
</g>
<g>
</g>
<g>
</g>
<g>
</g>
<g>
</g>
</svg>
