<?xml version="1.0" encoding="iso-8859-1"?>
<!-- Generator: Adobe Illustrator 19.0.0, SVG Export Plug-In . SVG Version: 6.00 Build 0)  -->
<svg version="1.1" id="Layer_1" xmlns="http://www.w3.org/2000/svg" xmlns:xlink="http://www.w3.org/1999/xlink" x="0px" y="0px"
	 viewBox="0 0 398.879 398.879" style="enable-background:new 0 0 398.879 398.879;" xml:space="preserve">
<g>
	<g>
		<path d="M143.969,222.556V181.99l-4.342,0.952v33.075c-2.161-0.993-4.956-1.275-8.018-0.599
			c-6.825,1.5-12.355,7.127-12.355,12.565c0,5.437,5.53,8.632,12.355,7.132C138.435,233.62,143.969,227.994,143.969,222.556z"/>
		<path d="M254.915,181.99h-0.005l-8.264,1.818l-63.519,13.962l-8.264,1.818v62.971c-4.111-1.894-9.431-2.422-15.258-1.142
			c-12.989,2.857-23.526,13.563-23.526,23.921c0,10.358,10.532,16.435,23.526,13.578c12.989-2.857,23.521-13.563,23.521-23.921
			v-63.724l63.519-13.962v49.464c-4.111-1.894-9.431-2.422-15.258-1.142c-12.989,2.857-23.526,13.563-23.526,23.921
			s10.532,16.435,23.526,13.583c12.989-2.857,23.526-13.563,23.526-23.921V181.99z"/>
		<path d="M104.141,92.739c-0.599-0.742-1.075-1.551-1.546-2.36c-20.127,21.135-33.434,48.809-36.332,79.483
			c1.137-0.22,2.299-0.353,3.497-0.353c1.649,0,3.215,0.287,4.736,0.691c2.79-28.457,15.186-54.083,33.807-73.779
			C106.772,95.396,105.334,94.223,104.141,92.739z"/>
		<path d="M0,218.916v95.908c0,13.624,11.044,24.668,24.668,24.668h20.721V194.243H24.668C11.044,194.243,0,205.292,0,218.916z"/>
		<path d="M69.765,175.391c-6.963,0-12.611,5.647-12.611,12.611v157.737c0,6.963,5.647,12.611,12.611,12.611
			s12.611-5.647,12.611-12.611V188.001C82.371,181.038,76.728,175.391,69.765,175.391z"/>
		<path d="M275.282,294.39c-2.161-0.993-4.956-1.275-8.013-0.599c-6.825,1.5-12.355,7.127-12.355,12.564s5.53,8.632,12.355,7.132
			c6.825-1.5,12.355-7.127,12.355-12.564v-40.566l-4.342,0.952V294.39z"/>
		<path d="M374.211,194.243H353.49v145.249h20.721c13.624,0,24.668-11.044,24.668-24.668v-95.908
			C398.879,205.292,387.835,194.243,374.211,194.243z"/>
		<path d="M329.114,175.391c-6.963,0-12.611,5.647-12.611,12.611v157.737c0,6.963,5.647,12.611,12.611,12.611
			s12.611-5.647,12.611-12.611V188.001C341.724,181.038,336.077,175.391,329.114,175.391z"/>
		<path d="M329.114,169.508c1.198,0,2.36,0.133,3.497,0.353c-2.898-30.674-16.2-58.348-36.326-79.483
			c-0.466,0.809-0.947,1.618-1.541,2.36c-1.193,1.485-2.632,2.657-4.168,3.681c18.621,19.697,31.017,45.322,33.807,73.779
			C325.898,169.795,327.465,169.508,329.114,169.508z"/>
		<path d="M288.246,71.716c-25.062-20.111-56.602-31.186-88.806-31.186c-32.2,0-63.739,11.075-88.812,31.186
			c-5.315,4.26-6.17,12.027-1.905,17.336c4.27,5.32,12.027,6.175,17.336,1.905c21.007-16.855,46.382-25.759,73.375-25.759
			c26.998,0,52.367,8.904,73.37,25.759c2.278,1.828,5.002,2.714,7.711,2.714c3.615,0,7.194-1.577,9.631-4.613
			C294.415,83.743,293.56,75.981,288.246,71.716z"/>
	</g>
</g>
<g>
</g>
<g>
</g>
<g>
</g>
<g>
</g>
<g>
</g>
<g>
</g>
<g>
</g>
<g>
</g>
<g>
</g>
<g>
</g>
<g>
</g>
<g>
</g>
<g>
</g>
<g>
</g>
<g>
</g>
</svg>
