<?xml version="1.0" encoding="iso-8859-1"?>
<!-- Generator: Adobe Illustrator 19.0.0, SVG Export Plug-In . SVG Version: 6.00 Build 0)  -->
<svg version="1.1" id="Layer_1" xmlns="http://www.w3.org/2000/svg" xmlns:xlink="http://www.w3.org/1999/xlink" x="0px" y="0px"
	 viewBox="0 0 433.597 433.597" style="enable-background:new 0 0 433.597 433.597;" xml:space="preserve">
<g>
	<g>
		<rect x="197.184" y="63.529" width="39.224" height="38.042"/>
		<polygon points="236.403,39.224 229.348,39.224 236.408,19.61 216.794,0 197.179,19.615 204.239,39.229 197.179,39.229 
			197.179,55.291 236.403,55.291 		"/>
		<rect x="197.184" y="109.809" width="39.224" height="113.331"/>
		<path d="M256.299,349.133c0-0.614,0.061-1.213,0.179-1.797c0.082-0.41,0.23-0.799,0.369-1.188
			c0.056-0.159,0.082-0.328,0.148-0.476c1.341-3.185,4.485-5.427,8.156-5.468h-0.092c0.061,0,0.118-0.021,0.179-0.021v-21.084
			c-0.456,0-0.896-0.067-1.336-0.133h0.671c-3.451-0.266-6.369-2.432-7.624-5.478c-0.061-0.159-0.097-0.328-0.154-0.492
			c-0.123-0.358-0.251-0.717-0.328-1.101c-0.113-0.563-0.174-1.147-0.174-1.746c0-4.931,4.004-8.94,8.945-8.94v-24.919h-11.5
			v-46.623h-73.887v46.623h-11.5v24.919c0.62,0,1.219,0.061,1.802,0.179c2.913,0.594,5.309,2.606,6.441,5.284
			c0.451,1.07,0.701,2.248,0.701,3.482c0,0.599-0.061,1.183-0.174,1.746c-0.077,0.379-0.205,0.737-0.328,1.101
			c-0.056,0.164-0.087,0.333-0.154,0.492c-1.254,3.041-4.173,5.207-7.624,5.478h0.666c-0.44,0.067-0.876,0.133-1.331,0.133v21.084
			c0.061,0,0.123,0.015,0.184,0.021h-0.092c3.671,0.041,6.815,2.278,8.156,5.463c0.072,0.169,0.102,0.348,0.164,0.522
			c0.133,0.374,0.271,0.748,0.353,1.147c0.118,0.579,0.179,1.178,0.179,1.797c0,4.941-4.004,8.945-8.945,8.945v71.987
			c14.72,2.345,29.589,3.528,44.457,3.528c17.562,0,35.123-1.644,52.434-4.951v-70.569
			C260.303,358.077,256.299,354.074,256.299,349.133z M174.231,296.55v-14.372h11.5v-46.623h62.121v46.623h11.5v14.372
			c-2.273,0.983-4.229,2.555-5.745,4.485h-73.626C178.465,299.105,176.509,297.539,174.231,296.55z M174.231,335.524v-11.755
			c2.401-1.044,4.449-2.724,5.996-4.803h73.139c1.541,2.079,3.589,3.758,5.99,4.803v11.755c-2.355,1.024-4.367,2.662-5.903,4.685
			h-73.318C178.598,338.186,176.586,336.548,174.231,335.524z M259.356,423.731c-15.319,2.642-30.956,3.978-46.551,3.978
			c-12.851,0-25.805-0.911-38.574-2.708v-62.254c2.324-1.009,4.316-2.621,5.842-4.603h73.441c1.531,1.982,3.517,3.594,5.842,4.603
			V423.731z"/>
	</g>
</g>
<g>
</g>
<g>
</g>
<g>
</g>
<g>
</g>
<g>
</g>
<g>
</g>
<g>
</g>
<g>
</g>
<g>
</g>
<g>
</g>
<g>
</g>
<g>
</g>
<g>
</g>
<g>
</g>
<g>
</g>
</svg>
