<?xml version="1.0" encoding="iso-8859-1"?>
<!-- Generator: Adobe Illustrator 19.0.0, SVG Export Plug-In . SVG Version: 6.00 Build 0)  -->
<svg version="1.1" id="Layer_1" xmlns="http://www.w3.org/2000/svg" xmlns:xlink="http://www.w3.org/1999/xlink" x="0px" y="0px"
	 viewBox="0 0 460.8 460.8" style="enable-background:new 0 0 460.8 460.8;" xml:space="preserve">
<g>
	<g>
		<path d="M307.492,158.827h-49.413c-2.847,0-5.151-2.309-5.151-5.151s2.304-5.151,5.151-5.151h49.418v-9.078h-49.418
			c-2.847,0-5.151-2.309-5.151-5.151s2.304-5.151,5.151-5.151h49.418v-9.083h-49.418c-2.847,0-5.151-2.309-5.151-5.151
			c0-2.842,2.304-5.151,5.151-5.151h49.418v-9.078h-49.418c-2.847,0-5.151-2.309-5.151-5.151c0-2.842,2.304-5.151,5.151-5.151
			h49.418v-7.711c0,0,0-3.697,0-5.571C307.497,34.514,272.978,0,230.4,0s-77.097,34.514-77.097,77.092c0,1.874,0,5.571,0,5.571
			v7.711h49.418c2.847,0,5.151,2.309,5.151,5.151s-2.304,5.151-5.151,5.151h-49.418v9.078h49.418c2.847,0,5.151,2.309,5.151,5.151
			s-2.304,5.151-5.151,5.151h-49.418v9.078h49.418c2.847,0,5.151,2.309,5.151,5.151s-2.304,5.151-5.151,5.151h-49.418v9.078h49.418
			c2.847,0,5.151,2.309,5.151,5.151c0,2.842-2.304,5.151-5.151,5.151h-49.418v26.701h154.189V158.827z M230.4,134.431
			c-5.427,0-9.825-4.398-9.825-9.825c0-5.427,4.398-9.825,9.825-9.825s9.825,4.398,9.825,9.825
			C240.225,130.027,235.827,134.431,230.4,134.431z"/>
		<path d="M214.231,306.647v-82.381h-60.928v7.014C153.303,268.314,179.42,299.213,214.231,306.647z"/>
		<path d="M307.497,231.286v-7.014h-60.928v82.381C281.38,299.213,307.497,268.314,307.497,231.286z"/>
		<path d="M360.74,197.294H100.06c-4.198,0-7.603,3.405-7.603,7.603c0,4.198,3.405,7.603,7.603,7.603h2.739v18.78
			c0,28.626,9.359,55.101,25.149,76.559c-0.532,1.29-0.835,2.703-0.835,4.183c0,6.067,4.915,10.982,10.982,10.982
			c0.886,0,1.741-0.133,2.565-0.333c20.357,20.398,47.457,34.043,77.635,37.289c0.538,1.434,1.341,2.724,2.319,3.86v96.727
			c3.256,0.118,6.502,0.251,9.784,0.251s6.528-0.133,9.784-0.246v-96.691c0.917-1.06,1.679-2.258,2.217-3.579
			c31.585-2.463,60.032-16.282,81.213-37.407c0.41,0.046,0.809,0.123,1.229,0.123c6.062,0,10.982-4.915,10.982-10.982
			c0-0.942-0.154-1.843-0.379-2.719c16.456-21.709,26.24-48.742,26.24-78.024v-18.877c3.748-0.471,6.656-3.635,6.656-7.511
			C368.343,200.699,364.938,197.294,360.74,197.294z M225.997,343.27c-3.128,1.137-5.668,3.425-7.148,6.374
			c-27.346-3.077-51.907-15.442-70.472-33.864c0.43-1.178,0.701-2.432,0.701-3.758c0-6.067-4.915-10.982-10.982-10.982
			c-0.753,0-1.49,0.077-2.202,0.22c-14.321-19.661-22.794-43.848-22.794-69.98V212.5h112.896V343.27z M351.386,231.286
			c0,26.307-8.576,50.647-23.076,70.369c-1.096-0.369-2.248-0.614-3.466-0.614c-6.067,0-10.982,4.915-10.982,10.982
			c0,1.731,0.435,3.348,1.152,4.808c-19.231,18.596-44.677,30.792-72.893,33.121c-1.449-3.098-4.076-5.504-7.311-6.682V212.506
			h116.577V231.286z"/>
	</g>
</g>
<g>
</g>
<g>
</g>
<g>
</g>
<g>
</g>
<g>
</g>
<g>
</g>
<g>
</g>
<g>
</g>
<g>
</g>
<g>
</g>
<g>
</g>
<g>
</g>
<g>
</g>
<g>
</g>
<g>
</g>
</svg>
