<?xml version="1.0" encoding="iso-8859-1"?>
<!-- Generator: Adobe Illustrator 19.0.0, SVG Export Plug-In . SVG Version: 6.00 Build 0)  -->
<svg version="1.1" id="Layer_1" xmlns="http://www.w3.org/2000/svg" xmlns:xlink="http://www.w3.org/1999/xlink" x="0px" y="0px"
	 viewBox="0 0 427.049 427.049" style="enable-background:new 0 0 427.049 427.049;" xml:space="preserve">
<g>
	<g>
		<path d="M264.172,71.491c-6.185,1.362-11.203,6.456-11.203,11.392s5.013,7.828,11.203,6.467s11.203-6.461,11.203-11.392V41.185
			l-3.937,0.865l-30.244,6.646l-3.937,0.865v29.983c-1.956-0.901-4.49-1.152-7.265-0.543c-6.185,1.362-11.203,6.456-11.203,11.392
			c0,4.931,5.013,7.828,11.203,6.467c6.185-1.362,11.203-6.456,11.203-11.392V55.127l30.244-6.646v23.552
			C269.481,71.132,266.947,70.881,264.172,71.491z"/>
		<rect x="87.055" y="116.014" width="253.24" height="3.942"/>
		<path d="M305.731,86.272c5.791-1.275,10.486-6.047,10.486-10.665V41.185l-3.686,0.809v28.073c-1.833-0.845-4.204-1.08-6.805-0.507
			c-5.791,1.275-10.486,6.047-10.486,10.665S299.94,87.547,305.731,86.272z"/>
		<rect x="87.055" y="134.39" width="253.24" height="3.942"/>
		<rect x="87.055" y="125.204" width="253.24" height="3.942"/>
		<rect x="87.055" y="106.824" width="253.24" height="3.942"/>
		<path d="M194.796,86.272c5.791-1.275,10.486-6.047,10.486-10.665V41.185l-3.686,0.809v28.073c-1.833-0.845-4.203-1.08-6.804-0.507
			c-5.791,1.275-10.486,6.047-10.486,10.665S189,87.547,194.796,86.272z"/>
		<path d="M223.985,303.821h-18.703v40.187l-50.975,76.805c4.613,0.993,9.262,1.879,13.957,2.642l37.018-55.777v59.274
			c1.295,0.036,2.591,0.077,3.886,0.097h8.714c2.038-0.031,4.076-0.082,6.103-0.154v-59.023l36.669,55.255
			c4.675-0.794,9.308-1.705,13.901-2.729l-50.57-76.196V303.821z"/>
		<polygon points="355,289.654 74.266,289.654 74.266,30.382 68.383,30.382 68.383,295.531 360.883,295.531 360.883,30.382 
			355,30.382 		"/>
		<rect x="87.055" y="143.58" width="253.24" height="3.942"/>
		<path d="M149.391,71.491c-6.185,1.362-11.203,6.456-11.203,11.392s5.013,7.828,11.203,6.467
			c6.185-1.362,11.203-6.461,11.203-11.392V41.185l-3.937,0.865l-30.244,6.646l-3.937,0.865v29.983
			c-1.956-0.901-4.49-1.152-7.265-0.543c-6.185,1.362-11.203,6.456-11.203,11.392c0,4.931,5.018,7.828,11.203,6.467
			c6.185-1.362,11.203-6.456,11.203-11.392V55.127l30.244-6.646v23.552C154.701,71.132,152.166,70.881,149.391,71.491z"/>
		<rect x="87.055" y="168.243" width="253.24" height="3.942"/>
		<rect x="87.055" y="257.229" width="253.24" height="3.942"/>
		<rect x="87.055" y="238.853" width="253.24" height="3.942"/>
		<rect x="87.055" y="248.038" width="253.24" height="3.942"/>
		<rect x="49.382" y="0" width="328.284" height="22.733"/>
		<rect x="87.055" y="266.419" width="253.24" height="3.942"/>
		<rect x="87.055" y="195.809" width="253.24" height="3.942"/>
		<rect x="87.055" y="186.624" width="253.24" height="3.942"/>
		<rect x="87.055" y="229.663" width="253.24" height="3.942"/>
		<rect x="87.055" y="177.434" width="253.24" height="3.942"/>
		<rect x="87.055" y="205" width="253.24" height="3.942"/>
	</g>
</g>
<g>
</g>
<g>
</g>
<g>
</g>
<g>
</g>
<g>
</g>
<g>
</g>
<g>
</g>
<g>
</g>
<g>
</g>
<g>
</g>
<g>
</g>
<g>
</g>
<g>
</g>
<g>
</g>
<g>
</g>
</svg>
