<?xml version="1.0" encoding="iso-8859-1"?>
<!-- Generator: Adobe Illustrator 19.0.0, SVG Export Plug-In . SVG Version: 6.00 Build 0)  -->
<svg version="1.1" id="Layer_1" xmlns="http://www.w3.org/2000/svg" xmlns:xlink="http://www.w3.org/1999/xlink" x="0px" y="0px"
	 viewBox="0 0 414.802 414.802" style="enable-background:new 0 0 414.802 414.802;" xml:space="preserve">
<g>
	<g>
		<path d="M61.204,181.816H37.627v52.741c0,4.429-2.949,8.172-6.989,9.37v60.314h30.566V181.816z"/>
		<path d="M133.197,243.999c-4.168-1.116-7.24-4.92-7.24-9.441v-52.741h-16.005v52.741c0,4.552-3.113,8.376-7.322,9.462v60.221
			h30.566V243.999z"/>
		<path d="M97.341,243.912c-4.014-1.213-6.938-4.946-6.938-9.354v-52.741H66.775v122.424h30.566V243.912z"/>
		<path d="M400.312,48.276h-385.7c-8.003,0-14.49,6.487-14.49,14.49v253.353c0,8.003,6.487,14.49,14.49,14.49h385.7
			c8.003,0,14.49-6.487,14.49-14.49V62.766C414.802,54.764,408.31,48.276,400.312,48.276z M372.541,77.025
			c6.42,0,11.622,5.202,11.622,11.622s-5.202,11.622-11.622,11.622s-11.622-5.202-11.622-11.622S366.121,77.025,372.541,77.025z
			 M372.541,112.527c6.42,0,11.622,5.202,11.622,11.622c0,6.42-5.202,11.622-11.622,11.622s-11.622-5.202-11.622-11.622
			C360.919,117.734,366.121,112.527,372.541,112.527z M339.523,77.025c6.42,0,11.622,5.202,11.622,11.622
			s-5.202,11.622-11.622,11.622S327.9,95.068,327.9,88.648S333.102,77.025,339.523,77.025z M339.523,112.527
			c6.42,0,11.622,5.202,11.622,11.622c0,6.42-5.202,11.622-11.622,11.622S327.9,130.57,327.9,124.15
			C327.9,117.734,333.102,112.527,339.523,112.527z M306.504,77.025c6.42,0,11.622,5.202,11.622,11.622s-5.202,11.622-11.622,11.622
			s-11.622-5.202-11.622-11.622C294.881,82.227,300.083,77.025,306.504,77.025z M306.504,112.527c6.42,0,11.622,5.202,11.622,11.622
			c0,6.42-5.202,11.622-11.622,11.622s-11.622-5.202-11.622-11.622C294.881,117.734,300.083,112.527,306.504,112.527z
			 M273.485,77.025c6.42,0,11.622,5.202,11.622,11.622s-5.202,11.622-11.622,11.622c-6.421,0-11.622-5.202-11.622-11.622
			S267.069,77.025,273.485,77.025z M273.485,112.527c6.42,0,11.622,5.202,11.622,11.622c0,6.42-5.202,11.622-11.622,11.622
			c-6.421,0-11.622-5.202-11.622-11.622C261.862,117.734,267.069,112.527,273.485,112.527z M141.435,77.025
			c6.42,0,11.622,5.202,11.622,11.622s-5.202,11.622-11.622,11.622c-6.421,0-11.622-5.202-11.622-11.622
			S135.014,77.025,141.435,77.025z M141.435,112.527c6.42,0,11.622,5.202,11.622,11.622c0,6.42-5.202,11.622-11.622,11.622
			c-6.421,0-11.622-5.202-11.622-11.622C129.812,117.734,135.014,112.527,141.435,112.527z M108.416,77.025
			c6.42,0,11.622,5.202,11.622,11.622s-5.202,11.622-11.622,11.622s-11.622-5.202-11.622-11.622S101.996,77.025,108.416,77.025z
			 M108.416,112.527c6.42,0,11.622,5.202,11.622,11.622c0,6.42-5.202,11.622-11.622,11.622s-11.622-5.202-11.622-11.622
			C96.794,117.734,101.996,112.527,108.416,112.527z M75.397,77.025c6.42,0,11.622,5.202,11.622,11.622s-5.202,11.622-11.622,11.622
			s-11.622-5.202-11.622-11.622S68.977,77.025,75.397,77.025z M75.397,112.527c6.42,0,11.622,5.202,11.622,11.622
			c0,6.42-5.202,11.622-11.622,11.622s-11.622-5.202-11.622-11.622C63.775,117.734,68.977,112.527,75.397,112.527z M42.378,77.025
			c6.42,0,11.622,5.202,11.622,11.622s-5.202,11.622-11.622,11.622s-11.622-5.202-11.622-11.622S35.958,77.025,42.378,77.025z
			 M42.378,112.527c6.42,0,11.622,5.202,11.622,11.622c0,6.42-5.202,11.622-11.622,11.622s-11.622-5.202-11.622-11.622
			C30.756,117.734,35.958,112.527,42.378,112.527z M391.465,314.506H22.426v-137.17h369.039V314.506z"/>
		<path d="M400.312,342.374H14.49c-8.003,0-14.49-6.487-14.49-14.49v24.151c0,8.003,6.487,14.49,14.49,14.49h385.818
			c8.003,0,14.49-6.487,14.49-14.49v-24.151C414.802,335.887,408.31,342.374,400.312,342.374z"/>
		<path d="M348.314,243.912c-4.014-1.213-6.938-4.946-6.938-9.354v-52.741h-23.629v122.424h30.566V243.912z"/>
		<path d="M276.608,244.014c-4.193-1.096-7.291-4.915-7.291-9.451v-52.746h-16.005v52.741c0,4.531-3.087,8.346-7.27,9.446v60.232
			h30.566V244.014z"/>
		<path d="M312.458,181.816L312.458,181.816H288.86v52.741c0,4.424-2.939,8.156-6.968,9.365v60.319h30.566V181.816z"/>
		<path d="M169.047,244.009L169.047,244.009c-4.183-1.106-7.27-4.915-7.27-9.446v-52.746H145.5v52.741
			c0,4.439-2.964,8.192-7.019,9.38v60.303h30.566V244.009z"/>
		<path d="M384.164,181.816h-23.245v52.741c0,4.552-3.113,8.376-7.322,9.462v60.221h30.566V181.816z"/>
		<path d="M204.902,181.816h-23.578v52.741c0,4.429-2.949,8.172-6.989,9.37v60.314h30.566V181.816z"/>
		<path d="M240.753,243.927c-4.04-1.198-6.989-4.941-6.989-9.37v-52.741h-23.578v122.424h30.566V243.927z"/>
	</g>
</g>
<g>
</g>
<g>
</g>
<g>
</g>
<g>
</g>
<g>
</g>
<g>
</g>
<g>
</g>
<g>
</g>
<g>
</g>
<g>
</g>
<g>
</g>
<g>
</g>
<g>
</g>
<g>
</g>
<g>
</g>
</svg>
