<?xml version="1.0" encoding="iso-8859-1"?>
<!-- Generator: Adobe Illustrator 19.0.0, SVG Export Plug-In . SVG Version: 6.00 Build 0)  -->
<svg version="1.1" id="Layer_1" xmlns="http://www.w3.org/2000/svg" xmlns:xlink="http://www.w3.org/1999/xlink" x="0px" y="0px"
	 viewBox="0 0 418.811 418.811" style="enable-background:new 0 0 418.811 418.811;" xml:space="preserve">
<g>
	<g>
		<path d="M209.405,302.044c-18.616,0-33.71,15.094-33.71,33.71s15.094,33.71,33.71,33.71s33.71-15.094,33.71-33.71
			S228.022,302.044,209.405,302.044z M209.405,346.609c-5.996,0-10.854-4.859-10.854-10.854s4.859-10.854,10.854-10.854
			c5.996,0,10.854,4.859,10.854,10.854S215.396,346.609,209.405,346.609z"/>
		<path d="M209.405,0C106.734,0,23.201,83.533,23.201,186.204c0,71.004,39.962,132.833,98.565,164.234v-6.717
			c-55.235-30.853-92.682-89.882-92.682-157.512c0-99.43,80.896-180.321,180.321-180.321s180.321,80.891,180.321,180.321
			c0,67.635-37.453,126.664-92.682,157.517v6.717c58.604-31.401,98.565-93.23,98.565-164.234C395.61,83.533,312.077,0,209.405,0z"/>
		<path d="M209.405,47.329c76.575,0,138.875,62.3,138.875,138.875c0,43.372-19.994,82.145-51.236,107.633v7.48
			c34.683-26.47,57.119-68.214,57.119-115.113c0-79.821-64.937-144.758-144.758-144.758S64.643,106.383,64.643,186.204
			c0,46.899,22.436,88.643,57.119,115.113v-7.475c-31.242-25.487-51.236-64.266-51.236-107.638
			C70.525,109.624,132.826,47.329,209.405,47.329z"/>
		<path d="M267.63,109.532H151.176c-9.748,0-17.649,7.9-17.649,17.649v291.63h151.752v-291.63
			C285.279,117.432,277.379,109.532,267.63,109.532z M209.405,381.015c-24.996,0-45.261-20.265-45.261-45.261
			s20.265-45.261,45.261-45.261s45.261,20.265,45.261,45.261C254.666,360.75,234.401,381.015,209.405,381.015z M209.405,231.465
			c-24.996,0-45.261-20.265-45.261-45.261s20.265-45.261,45.261-45.261s45.261,20.265,45.261,45.261
			C254.661,211.2,234.401,231.465,209.405,231.465z"/>
		<path d="M209.405,152.494c-18.616,0-33.71,15.094-33.71,33.71s15.094,33.71,33.71,33.71s33.71-15.094,33.71-33.71
			S228.022,152.494,209.405,152.494z M209.405,197.059c-5.996,0-10.854-4.859-10.854-10.854c0-5.995,4.859-10.854,10.854-10.854
			c5.996,0,10.854,4.859,10.854,10.854C220.255,192.2,215.396,197.059,209.405,197.059z"/>
	</g>
</g>
<g>
</g>
<g>
</g>
<g>
</g>
<g>
</g>
<g>
</g>
<g>
</g>
<g>
</g>
<g>
</g>
<g>
</g>
<g>
</g>
<g>
</g>
<g>
</g>
<g>
</g>
<g>
</g>
<g>
</g>
</svg>
